<svg width="277" height="169" viewBox="0 0 277 169" fill="none" xmlns="http://www.w3.org/2000/svg">
<path d="M8.11719 156.42C8.05658 155.883 7.80658 155.466 7.36719 155.17C6.92779 154.871 6.37476 154.722 5.7081 154.722C5.23082 154.722 4.81795 154.797 4.46946 154.949C4.12098 155.097 3.85014 155.301 3.65696 155.562C3.46757 155.82 3.37287 156.114 3.37287 156.443C3.37287 156.72 3.43726 156.958 3.56605 157.159C3.69863 157.36 3.87098 157.528 4.0831 157.665C4.29901 157.797 4.53007 157.909 4.77628 158C5.02249 158.087 5.25923 158.159 5.48651 158.216L6.62287 158.511C6.99408 158.602 7.37476 158.725 7.76491 158.881C8.15507 159.036 8.51681 159.241 8.85014 159.494C9.18348 159.748 9.45242 160.062 9.65696 160.438C9.86529 160.812 9.96946 161.261 9.96946 161.784C9.96946 162.443 9.79901 163.028 9.4581 163.54C9.12098 164.051 8.63045 164.455 7.98651 164.75C7.34635 165.045 6.57173 165.193 5.66264 165.193C4.79143 165.193 4.03764 165.055 3.40128 164.778C2.76491 164.502 2.26681 164.11 1.90696 163.602C1.54711 163.091 1.34825 162.485 1.31037 161.784H3.07173C3.10582 162.205 3.24219 162.555 3.48082 162.835C3.72325 163.112 4.03196 163.318 4.40696 163.455C4.78575 163.587 5.20052 163.653 5.65128 163.653C6.14749 163.653 6.58878 163.576 6.97514 163.42C7.36529 163.261 7.67211 163.042 7.8956 162.761C8.11908 162.477 8.23082 162.146 8.23082 161.767C8.23082 161.422 8.13234 161.14 7.93537 160.92C7.74219 160.701 7.47893 160.519 7.1456 160.375C6.81605 160.231 6.44295 160.104 6.02628 159.994L4.65128 159.619C3.71946 159.366 2.98082 158.992 2.43537 158.5C1.8937 158.008 1.62287 157.356 1.62287 156.545C1.62287 155.875 1.80469 155.29 2.16832 154.79C2.53196 154.29 3.02438 153.902 3.6456 153.625C4.26681 153.345 4.96757 153.205 5.74787 153.205C6.53575 153.205 7.23082 153.343 7.8331 153.619C8.43916 153.896 8.91643 154.277 9.26492 154.761C9.6134 155.242 9.79522 155.795 9.81037 156.42H8.11719ZM15.6072 165.176C14.7625 165.176 14.0353 164.985 13.4254 164.602C12.8194 164.216 12.3535 163.684 12.0277 163.006C11.7019 162.328 11.5391 161.551 11.5391 160.676C11.5391 159.79 11.7057 159.008 12.0391 158.33C12.3724 157.648 12.8421 157.116 13.4482 156.733C14.0542 156.35 14.7682 156.159 15.5902 156.159C16.2531 156.159 16.844 156.282 17.3629 156.528C17.8819 156.771 18.3004 157.112 18.6186 157.551C18.9406 157.991 19.1319 158.504 19.1925 159.091H17.5391C17.4482 158.682 17.2398 158.33 16.9141 158.034C16.5921 157.739 16.1603 157.591 15.6186 157.591C15.1451 157.591 14.7304 157.716 14.3743 157.966C14.022 158.212 13.7474 158.564 13.5504 159.023C13.3535 159.477 13.255 160.015 13.255 160.636C13.255 161.273 13.3516 161.822 13.5447 162.284C13.7379 162.746 14.0107 163.104 14.3629 163.358C14.719 163.612 15.1375 163.739 15.6186 163.739C15.9406 163.739 16.2322 163.68 16.4936 163.562C16.7588 163.441 16.9804 163.269 17.1584 163.045C17.3402 162.822 17.4671 162.553 17.5391 162.239H19.1925C19.1319 162.803 18.9482 163.307 18.6413 163.75C18.3345 164.193 17.9235 164.542 17.4084 164.795C16.897 165.049 16.2966 165.176 15.6072 165.176ZM23.549 165.193C22.996 165.193 22.496 165.091 22.049 164.886C21.602 164.678 21.2479 164.377 20.9865 163.983C20.7289 163.589 20.6001 163.106 20.6001 162.534C20.6001 162.042 20.6948 161.636 20.8842 161.318C21.0736 161 21.3293 160.748 21.6513 160.562C21.9732 160.377 22.3331 160.237 22.7308 160.142C23.1286 160.047 23.5339 159.975 23.9467 159.926C24.4695 159.866 24.8937 159.816 25.2195 159.778C25.5452 159.737 25.782 159.67 25.9297 159.58C26.0774 159.489 26.1513 159.341 26.1513 159.136V159.097C26.1513 158.6 26.0111 158.216 25.7308 157.943C25.4543 157.67 25.0414 157.534 24.4922 157.534C23.9202 157.534 23.4695 157.661 23.1399 157.915C22.8142 158.165 22.5888 158.443 22.4638 158.75L20.8672 158.386C21.0566 157.856 21.3331 157.428 21.6967 157.102C22.0642 156.773 22.4865 156.534 22.9638 156.386C23.4411 156.235 23.9429 156.159 24.4695 156.159C24.8179 156.159 25.1873 156.201 25.5774 156.284C25.9714 156.364 26.3388 156.511 26.6797 156.727C27.0244 156.943 27.3066 157.252 27.5263 157.653C27.746 158.051 27.8558 158.568 27.8558 159.205V165H26.1967V163.807H26.1286C26.0187 164.027 25.8539 164.242 25.6342 164.455C25.4145 164.667 25.1323 164.843 24.7876 164.983C24.4429 165.123 24.0301 165.193 23.549 165.193ZM23.9183 163.83C24.388 163.83 24.7895 163.737 25.1229 163.551C25.46 163.366 25.7157 163.123 25.8899 162.824C26.0679 162.521 26.157 162.197 26.157 161.852V160.727C26.0964 160.788 25.9789 160.845 25.8047 160.898C25.6342 160.947 25.4392 160.991 25.2195 161.028C24.9998 161.062 24.7857 161.095 24.5774 161.125C24.3691 161.152 24.1948 161.174 24.0547 161.193C23.7251 161.235 23.424 161.305 23.1513 161.403C22.8823 161.502 22.6664 161.644 22.5036 161.83C22.3445 162.011 22.2649 162.254 22.2649 162.557C22.2649 162.977 22.4202 163.295 22.7308 163.511C23.0414 163.723 23.4373 163.83 23.9183 163.83ZM31.8175 159.818V165H30.1186V156.273H31.7493V157.693H31.8572C32.058 157.231 32.3724 156.86 32.8004 156.58C33.2322 156.299 33.7758 156.159 34.4311 156.159C35.0258 156.159 35.5466 156.284 35.9936 156.534C36.4406 156.78 36.7872 157.148 37.0334 157.636C37.2796 158.125 37.4027 158.729 37.4027 159.449V165H35.7038V159.653C35.7038 159.021 35.5391 158.527 35.2095 158.17C34.88 157.811 34.4273 157.631 33.8516 157.631C33.4576 157.631 33.1072 157.716 32.8004 157.886C32.4974 158.057 32.2569 158.307 32.0788 158.636C31.9046 158.962 31.8175 159.356 31.8175 159.818ZM48.3303 161.227H50.0575L51.2734 162.812L51.8473 163.517L53.7848 166.045H51.9893L50.6939 164.358L50.2507 163.744L48.3303 161.227ZM54.1598 159.182C54.1598 160.424 53.9325 161.492 53.478 162.386C53.0234 163.277 52.4003 163.962 51.6087 164.443C50.8208 164.92 49.925 165.159 48.9212 165.159C47.9136 165.159 47.014 164.92 46.2223 164.443C45.4344 163.962 44.8132 163.275 44.3587 162.381C43.9041 161.487 43.6768 160.42 43.6768 159.182C43.6768 157.939 43.9041 156.873 44.3587 155.983C44.8132 155.089 45.4344 154.403 46.2223 153.926C47.014 153.445 47.9136 153.205 48.9212 153.205C49.925 153.205 50.8208 153.445 51.6087 153.926C52.4003 154.403 53.0234 155.089 53.478 155.983C53.9325 156.873 54.1598 157.939 54.1598 159.182ZM52.4212 159.182C52.4212 158.235 52.2678 157.437 51.9609 156.79C51.6579 156.138 51.2412 155.646 50.7109 155.312C50.1844 154.975 49.5878 154.807 48.9212 154.807C48.2507 154.807 47.6522 154.975 47.1257 155.312C46.5992 155.646 46.1825 156.138 45.8757 156.79C45.5727 157.437 45.4212 158.235 45.4212 159.182C45.4212 160.129 45.5727 160.928 45.8757 161.58C46.1825 162.227 46.5992 162.72 47.1257 163.057C47.6522 163.39 48.2507 163.557 48.9212 163.557C49.5878 163.557 50.1844 163.39 50.7109 163.057C51.2412 162.72 51.6579 162.227 51.9609 161.58C52.2678 160.928 52.4212 160.129 52.4212 159.182ZM56.3487 165V153.364H60.4964C61.398 153.364 62.1461 153.519 62.7408 153.83C63.3393 154.14 63.7862 154.57 64.0817 155.119C64.3771 155.665 64.5249 156.295 64.5249 157.011C64.5249 157.723 64.3752 158.35 64.076 158.892C63.7805 159.43 63.3336 159.848 62.7351 160.148C62.1404 160.447 61.3923 160.597 60.4908 160.597H57.3487V159.085H60.3317C60.8999 159.085 61.362 159.004 61.718 158.841C62.0779 158.678 62.3411 158.441 62.5078 158.131C62.6745 157.82 62.7578 157.447 62.7578 157.011C62.7578 156.572 62.6726 156.191 62.5021 155.869C62.3355 155.547 62.0722 155.301 61.7124 155.131C61.3563 154.956 60.8885 154.869 60.3089 154.869H58.1044V165H56.3487ZM62.093 159.75L64.968 165H62.968L60.1499 159.75H62.093ZM73.299 165.193C72.746 165.193 72.246 165.091 71.799 164.886C71.352 164.678 70.9979 164.377 70.7365 163.983C70.4789 163.589 70.3501 163.106 70.3501 162.534C70.3501 162.042 70.4448 161.636 70.6342 161.318C70.8236 161 71.0793 160.748 71.4013 160.562C71.7232 160.377 72.0831 160.237 72.4808 160.142C72.8786 160.047 73.2839 159.975 73.6967 159.926C74.2195 159.866 74.6437 159.816 74.9695 159.778C75.2952 159.737 75.532 159.67 75.6797 159.58C75.8274 159.489 75.9013 159.341 75.9013 159.136V159.097C75.9013 158.6 75.7611 158.216 75.4808 157.943C75.2043 157.67 74.7914 157.534 74.2422 157.534C73.6702 157.534 73.2195 157.661 72.8899 157.915C72.5642 158.165 72.3388 158.443 72.2138 158.75L70.6172 158.386C70.8066 157.856 71.0831 157.428 71.4467 157.102C71.8142 156.773 72.2365 156.534 72.7138 156.386C73.1911 156.235 73.6929 156.159 74.2195 156.159C74.5679 156.159 74.9373 156.201 75.3274 156.284C75.7214 156.364 76.0888 156.511 76.4297 156.727C76.7744 156.943 77.0566 157.252 77.2763 157.653C77.496 158.051 77.6058 158.568 77.6058 159.205V165H75.9467V163.807H75.8786C75.7687 164.027 75.6039 164.242 75.3842 164.455C75.1645 164.667 74.8823 164.843 74.5376 164.983C74.1929 165.123 73.7801 165.193 73.299 165.193ZM73.6683 163.83C74.138 163.83 74.5395 163.737 74.8729 163.551C75.21 163.366 75.4657 163.123 75.6399 162.824C75.8179 162.521 75.907 162.197 75.907 161.852V160.727C75.8464 160.788 75.7289 160.845 75.5547 160.898C75.3842 160.947 75.1892 160.991 74.9695 161.028C74.7498 161.062 74.5357 161.095 74.3274 161.125C74.1191 161.152 73.9448 161.174 73.8047 161.193C73.4751 161.235 73.174 161.305 72.9013 161.403C72.6323 161.502 72.4164 161.644 72.2536 161.83C72.0945 162.011 72.0149 162.254 72.0149 162.557C72.0149 162.977 72.1702 163.295 72.4808 163.511C72.7914 163.723 73.1873 163.83 73.6683 163.83ZM81.5675 159.818V165H79.8686V156.273H81.4993V157.693H81.6072C81.808 157.231 82.1224 156.86 82.5504 156.58C82.9822 156.299 83.5258 156.159 84.1811 156.159C84.7758 156.159 85.2966 156.284 85.7436 156.534C86.1906 156.78 86.5372 157.148 86.7834 157.636C87.0296 158.125 87.1527 158.729 87.1527 159.449V165H85.4538V159.653C85.4538 159.021 85.2891 158.527 84.9595 158.17C84.63 157.811 84.1773 157.631 83.6016 157.631C83.2076 157.631 82.8572 157.716 82.5504 157.886C82.2474 158.057 82.0069 158.307 81.8288 158.636C81.6546 158.962 81.5675 159.356 81.5675 159.818ZM92.6982 165.17C91.9936 165.17 91.3648 164.991 90.8118 164.631C90.2625 164.267 89.8307 163.75 89.5163 163.08C89.2057 162.405 89.0504 161.597 89.0504 160.653C89.0504 159.71 89.2076 158.903 89.522 158.233C89.8402 157.562 90.2758 157.049 90.8288 156.693C91.3819 156.337 92.0088 156.159 92.7095 156.159C93.2512 156.159 93.6868 156.25 94.0163 156.432C94.3497 156.61 94.6072 156.818 94.7891 157.057C94.9747 157.295 95.1186 157.506 95.2209 157.688H95.3232V153.364H97.022V165H95.3629V163.642H95.2209C95.1186 163.828 94.9709 164.04 94.7777 164.278C94.5883 164.517 94.3269 164.725 93.9936 164.903C93.6603 165.081 93.2285 165.17 92.6982 165.17ZM93.0732 163.722C93.5618 163.722 93.9747 163.593 94.3118 163.335C94.6527 163.074 94.9103 162.712 95.0845 162.25C95.2625 161.788 95.3516 161.25 95.3516 160.636C95.3516 160.03 95.2644 159.5 95.0902 159.045C94.916 158.591 94.6603 158.237 94.3232 157.983C93.986 157.729 93.5694 157.602 93.0732 157.602C92.5618 157.602 92.1357 157.735 91.7947 158C91.4538 158.265 91.1963 158.627 91.022 159.085C90.8516 159.544 90.7663 160.061 90.7663 160.636C90.7663 161.22 90.8535 161.744 91.0277 162.21C91.2019 162.676 91.4595 163.045 91.8004 163.318C92.1451 163.587 92.5694 163.722 93.0732 163.722ZM110.221 158.403L108.681 158.676C108.617 158.479 108.514 158.292 108.374 158.114C108.238 157.936 108.052 157.79 107.817 157.676C107.583 157.562 107.289 157.506 106.937 157.506C106.456 157.506 106.054 157.614 105.732 157.83C105.41 158.042 105.249 158.316 105.249 158.653C105.249 158.945 105.357 159.18 105.573 159.358C105.789 159.536 106.138 159.682 106.619 159.795L108.005 160.114C108.808 160.299 109.406 160.585 109.8 160.972C110.194 161.358 110.391 161.86 110.391 162.477C110.391 163 110.24 163.466 109.937 163.875C109.638 164.28 109.219 164.598 108.681 164.83C108.147 165.061 107.528 165.176 106.823 165.176C105.846 165.176 105.049 164.968 104.431 164.551C103.814 164.131 103.435 163.534 103.295 162.761L104.937 162.511C105.039 162.939 105.249 163.263 105.567 163.483C105.886 163.699 106.3 163.807 106.812 163.807C107.369 163.807 107.814 163.691 108.147 163.46C108.48 163.225 108.647 162.939 108.647 162.602C108.647 162.33 108.545 162.1 108.34 161.915C108.139 161.729 107.831 161.589 107.414 161.494L105.937 161.17C105.122 160.985 104.52 160.689 104.13 160.284C103.744 159.879 103.55 159.366 103.55 158.744C103.55 158.229 103.694 157.778 103.982 157.392C104.27 157.006 104.668 156.705 105.175 156.489C105.683 156.269 106.264 156.159 106.92 156.159C107.863 156.159 108.605 156.364 109.147 156.773C109.689 157.178 110.047 157.722 110.221 158.403ZM113.958 159.818V165H112.259V153.364H113.935V157.693H114.043C114.248 157.223 114.56 156.85 114.981 156.574C115.401 156.297 115.951 156.159 116.629 156.159C117.227 156.159 117.75 156.282 118.197 156.528C118.647 156.775 118.996 157.142 119.242 157.631C119.492 158.116 119.617 158.722 119.617 159.449V165H117.918V159.653C117.918 159.013 117.754 158.517 117.424 158.165C117.094 157.809 116.636 157.631 116.049 157.631C115.647 157.631 115.288 157.716 114.969 157.886C114.655 158.057 114.407 158.307 114.225 158.636C114.047 158.962 113.958 159.356 113.958 159.818ZM124.424 165.193C123.871 165.193 123.371 165.091 122.924 164.886C122.477 164.678 122.123 164.377 121.862 163.983C121.604 163.589 121.475 163.106 121.475 162.534C121.475 162.042 121.57 161.636 121.759 161.318C121.949 161 122.204 160.748 122.526 160.562C122.848 160.377 123.208 160.237 123.606 160.142C124.004 160.047 124.409 159.975 124.822 159.926C125.344 159.866 125.769 159.816 126.094 159.778C126.42 159.737 126.657 159.67 126.805 159.58C126.952 159.489 127.026 159.341 127.026 159.136V159.097C127.026 158.6 126.886 158.216 126.606 157.943C126.329 157.67 125.916 157.534 125.367 157.534C124.795 157.534 124.344 157.661 124.015 157.915C123.689 158.165 123.464 158.443 123.339 158.75L121.742 158.386C121.932 157.856 122.208 157.428 122.572 157.102C122.939 156.773 123.362 156.534 123.839 156.386C124.316 156.235 124.818 156.159 125.344 156.159C125.693 156.159 126.062 156.201 126.452 156.284C126.846 156.364 127.214 156.511 127.555 156.727C127.899 156.943 128.182 157.252 128.401 157.653C128.621 158.051 128.731 158.568 128.731 159.205V165H127.072V163.807H127.004C126.894 164.027 126.729 164.242 126.509 164.455C126.29 164.667 126.007 164.843 125.663 164.983C125.318 165.123 124.905 165.193 124.424 165.193ZM124.793 163.83C125.263 163.83 125.665 163.737 125.998 163.551C126.335 163.366 126.591 163.123 126.765 162.824C126.943 162.521 127.032 162.197 127.032 161.852V160.727C126.971 160.788 126.854 160.845 126.68 160.898C126.509 160.947 126.314 160.991 126.094 161.028C125.875 161.062 125.661 161.095 125.452 161.125C125.244 161.152 125.07 161.174 124.93 161.193C124.6 161.235 124.299 161.305 124.026 161.403C123.757 161.502 123.541 161.644 123.379 161.83C123.219 162.011 123.14 162.254 123.14 162.557C123.14 162.977 123.295 163.295 123.606 163.511C123.916 163.723 124.312 163.83 124.793 163.83ZM130.994 165V156.273H132.636V157.659H132.727C132.886 157.189 133.166 156.82 133.567 156.551C133.973 156.278 134.431 156.142 134.942 156.142C135.049 156.142 135.174 156.146 135.317 156.153C135.465 156.161 135.581 156.17 135.664 156.182V157.807C135.596 157.788 135.475 157.767 135.3 157.744C135.126 157.718 134.952 157.705 134.778 157.705C134.376 157.705 134.018 157.79 133.704 157.96C133.393 158.127 133.147 158.36 132.965 158.659C132.783 158.955 132.692 159.292 132.692 159.67V165H130.994ZM140.583 165.176C139.723 165.176 138.983 164.992 138.362 164.625C137.744 164.254 137.267 163.733 136.93 163.062C136.596 162.388 136.43 161.598 136.43 160.693C136.43 159.799 136.596 159.011 136.93 158.33C137.267 157.648 137.737 157.116 138.339 156.733C138.945 156.35 139.653 156.159 140.464 156.159C140.956 156.159 141.433 156.241 141.896 156.403C142.358 156.566 142.772 156.822 143.14 157.17C143.507 157.519 143.797 157.972 144.009 158.528C144.221 159.081 144.327 159.754 144.327 160.545V161.148H137.39V159.875H142.663C142.663 159.428 142.572 159.032 142.39 158.688C142.208 158.339 141.952 158.064 141.623 157.864C141.297 157.663 140.915 157.562 140.475 157.562C139.998 157.562 139.581 157.68 139.225 157.915C138.873 158.146 138.6 158.449 138.407 158.824C138.218 159.195 138.123 159.598 138.123 160.034V161.028C138.123 161.612 138.225 162.108 138.43 162.517C138.638 162.926 138.928 163.239 139.299 163.455C139.67 163.667 140.104 163.773 140.6 163.773C140.922 163.773 141.216 163.727 141.481 163.636C141.746 163.542 141.975 163.402 142.168 163.216C142.362 163.03 142.509 162.801 142.612 162.528L144.219 162.818C144.091 163.292 143.86 163.706 143.526 164.062C143.197 164.415 142.782 164.689 142.282 164.886C141.786 165.08 141.219 165.176 140.583 165.176ZM151.521 168.273C151.267 168.273 151.036 168.252 150.827 168.21C150.619 168.172 150.464 168.131 150.362 168.085L150.771 166.693C151.081 166.777 151.358 166.813 151.6 166.801C151.843 166.79 152.057 166.699 152.242 166.528C152.432 166.358 152.598 166.08 152.742 165.693L152.952 165.114L149.759 156.273H151.577L153.788 163.045H153.879L156.089 156.273H157.913L154.316 166.165C154.149 166.619 153.937 167.004 153.68 167.318C153.422 167.636 153.115 167.875 152.759 168.034C152.403 168.193 151.99 168.273 151.521 168.273ZM162.888 165.176C162.07 165.176 161.356 164.989 160.746 164.614C160.137 164.239 159.663 163.714 159.326 163.04C158.989 162.366 158.82 161.578 158.82 160.676C158.82 159.771 158.989 158.979 159.326 158.301C159.663 157.623 160.137 157.097 160.746 156.722C161.356 156.347 162.07 156.159 162.888 156.159C163.707 156.159 164.421 156.347 165.031 156.722C165.64 157.097 166.114 157.623 166.451 158.301C166.788 158.979 166.957 159.771 166.957 160.676C166.957 161.578 166.788 162.366 166.451 163.04C166.114 163.714 165.64 164.239 165.031 164.614C164.421 164.989 163.707 165.176 162.888 165.176ZM162.894 163.75C163.424 163.75 163.864 163.61 164.212 163.33C164.561 163.049 164.818 162.676 164.985 162.21C165.156 161.744 165.241 161.231 165.241 160.67C165.241 160.114 165.156 159.602 164.985 159.136C164.818 158.667 164.561 158.29 164.212 158.006C163.864 157.722 163.424 157.58 162.894 157.58C162.36 157.58 161.917 157.722 161.565 158.006C161.216 158.29 160.957 158.667 160.786 159.136C160.62 159.602 160.536 160.114 160.536 160.67C160.536 161.231 160.62 161.744 160.786 162.21C160.957 162.676 161.216 163.049 161.565 163.33C161.917 163.61 162.36 163.75 162.894 163.75ZM174.381 161.381V156.273H176.086V165H174.415V163.489H174.325C174.124 163.955 173.802 164.343 173.359 164.653C172.919 164.96 172.372 165.114 171.717 165.114C171.156 165.114 170.66 164.991 170.228 164.744C169.8 164.494 169.463 164.125 169.217 163.636C168.974 163.148 168.853 162.544 168.853 161.824V156.273H170.552V161.619C170.552 162.214 170.717 162.687 171.046 163.04C171.376 163.392 171.804 163.568 172.33 163.568C172.648 163.568 172.965 163.489 173.279 163.33C173.597 163.17 173.861 162.93 174.069 162.608C174.281 162.286 174.385 161.877 174.381 161.381ZM178.369 165V156.273H180.011V157.659H180.102C180.261 157.189 180.541 156.82 180.942 156.551C181.348 156.278 181.806 156.142 182.317 156.142C182.424 156.142 182.549 156.146 182.692 156.153C182.84 156.161 182.956 156.17 183.039 156.182V157.807C182.971 157.788 182.85 157.767 182.675 157.744C182.501 157.718 182.327 157.705 182.153 157.705C181.751 157.705 181.393 157.79 181.079 157.96C180.768 158.127 180.522 158.36 180.34 158.659C180.158 158.955 180.067 159.292 180.067 159.67V165H178.369ZM188.744 165V156.273H190.442V165H188.744ZM189.602 154.926C189.306 154.926 189.052 154.828 188.84 154.631C188.632 154.43 188.528 154.191 188.528 153.915C188.528 153.634 188.632 153.396 188.84 153.199C189.052 152.998 189.306 152.898 189.602 152.898C189.897 152.898 190.149 152.998 190.357 153.199C190.569 153.396 190.675 153.634 190.675 153.915C190.675 154.191 190.569 154.43 190.357 154.631C190.149 154.828 189.897 154.926 189.602 154.926ZM192.728 165V156.273H194.359V157.693H194.467C194.648 157.212 194.946 156.837 195.359 156.568C195.772 156.295 196.266 156.159 196.842 156.159C197.425 156.159 197.914 156.295 198.308 156.568C198.705 156.841 198.999 157.216 199.188 157.693H199.279C199.487 157.227 199.819 156.856 200.273 156.58C200.728 156.299 201.27 156.159 201.898 156.159C202.69 156.159 203.336 156.407 203.836 156.903C204.34 157.4 204.592 158.148 204.592 159.148V165H202.893V159.307C202.893 158.716 202.732 158.288 202.41 158.023C202.088 157.758 201.703 157.625 201.256 157.625C200.703 157.625 200.273 157.795 199.967 158.136C199.66 158.473 199.506 158.907 199.506 159.438V165H197.813V159.199C197.813 158.725 197.665 158.345 197.37 158.057C197.075 157.769 196.69 157.625 196.217 157.625C195.895 157.625 195.597 157.71 195.325 157.881C195.056 158.047 194.838 158.28 194.671 158.58C194.508 158.879 194.427 159.225 194.427 159.619V165H192.728ZM209.408 165.193C208.855 165.193 208.355 165.091 207.908 164.886C207.461 164.678 207.107 164.377 206.846 163.983C206.588 163.589 206.46 163.106 206.46 162.534C206.46 162.042 206.554 161.636 206.744 161.318C206.933 161 207.189 160.748 207.511 160.562C207.833 160.377 208.192 160.237 208.59 160.142C208.988 160.047 209.393 159.975 209.806 159.926C210.329 159.866 210.753 159.816 211.079 159.778C211.405 159.737 211.641 159.67 211.789 159.58C211.937 159.489 212.011 159.341 212.011 159.136V159.097C212.011 158.6 211.871 158.216 211.59 157.943C211.314 157.67 210.901 157.534 210.352 157.534C209.78 157.534 209.329 157.661 208.999 157.915C208.674 158.165 208.448 158.443 208.323 158.75L206.727 158.386C206.916 157.856 207.192 157.428 207.556 157.102C207.924 156.773 208.346 156.534 208.823 156.386C209.3 156.235 209.802 156.159 210.329 156.159C210.677 156.159 211.047 156.201 211.437 156.284C211.831 156.364 212.198 156.511 212.539 156.727C212.884 156.943 213.166 157.252 213.386 157.653C213.605 158.051 213.715 158.568 213.715 159.205V165H212.056V163.807H211.988C211.878 164.027 211.713 164.242 211.494 164.455C211.274 164.667 210.992 164.843 210.647 164.983C210.302 165.123 209.889 165.193 209.408 165.193ZM209.778 163.83C210.247 163.83 210.649 163.737 210.982 163.551C211.319 163.366 211.575 163.123 211.749 162.824C211.927 162.521 212.016 162.197 212.016 161.852V160.727C211.956 160.788 211.838 160.845 211.664 160.898C211.494 160.947 211.299 160.991 211.079 161.028C210.859 161.062 210.645 161.095 210.437 161.125C210.228 161.152 210.054 161.174 209.914 161.193C209.585 161.235 209.283 161.305 209.011 161.403C208.742 161.502 208.526 161.644 208.363 161.83C208.204 162.011 208.124 162.254 208.124 162.557C208.124 162.977 208.28 163.295 208.59 163.511C208.901 163.723 209.297 163.83 209.778 163.83ZM219.637 168.455C218.944 168.455 218.347 168.364 217.847 168.182C217.351 168 216.946 167.759 216.631 167.46C216.317 167.161 216.082 166.833 215.927 166.477L217.387 165.875C217.489 166.042 217.626 166.218 217.796 166.403C217.97 166.593 218.205 166.754 218.501 166.886C218.8 167.019 219.184 167.085 219.654 167.085C220.298 167.085 220.83 166.928 221.251 166.614C221.671 166.303 221.881 165.807 221.881 165.125V163.409H221.773C221.671 163.595 221.523 163.801 221.33 164.028C221.141 164.256 220.879 164.453 220.546 164.619C220.213 164.786 219.779 164.869 219.245 164.869C218.556 164.869 217.934 164.708 217.381 164.386C216.832 164.061 216.397 163.581 216.075 162.949C215.756 162.312 215.597 161.53 215.597 160.602C215.597 159.674 215.754 158.879 216.069 158.216C216.387 157.553 216.823 157.045 217.376 156.693C217.929 156.337 218.556 156.159 219.256 156.159C219.798 156.159 220.236 156.25 220.569 156.432C220.902 156.61 221.162 156.818 221.347 157.057C221.537 157.295 221.683 157.506 221.785 157.688H221.91V156.273H223.575V165.193C223.575 165.943 223.4 166.559 223.052 167.04C222.703 167.521 222.232 167.877 221.637 168.108C221.046 168.339 220.379 168.455 219.637 168.455ZM219.62 163.46C220.109 163.46 220.522 163.347 220.859 163.119C221.2 162.888 221.457 162.559 221.631 162.131C221.809 161.699 221.898 161.182 221.898 160.58C221.898 159.992 221.811 159.475 221.637 159.028C221.463 158.581 221.207 158.233 220.87 157.983C220.533 157.729 220.116 157.602 219.62 157.602C219.109 157.602 218.683 157.735 218.342 158C218.001 158.261 217.743 158.617 217.569 159.068C217.398 159.519 217.313 160.023 217.313 160.58C217.313 161.152 217.4 161.653 217.575 162.085C217.749 162.517 218.006 162.854 218.347 163.097C218.692 163.339 219.116 163.46 219.62 163.46ZM225.853 165V156.273H227.552V165H225.853ZM226.711 154.926C226.415 154.926 226.162 154.828 225.95 154.631C225.741 154.43 225.637 154.191 225.637 153.915C225.637 153.634 225.741 153.396 225.95 153.199C226.162 152.998 226.415 152.898 226.711 152.898C227.006 152.898 227.258 152.998 227.467 153.199C227.679 153.396 227.785 153.634 227.785 153.915C227.785 154.191 227.679 154.43 227.467 154.631C227.258 154.828 227.006 154.926 226.711 154.926ZM231.536 159.818V165H229.837V156.273H231.468V157.693H231.576C231.777 157.231 232.091 156.86 232.519 156.58C232.951 156.299 233.495 156.159 234.15 156.159C234.745 156.159 235.265 156.284 235.712 156.534C236.159 156.78 236.506 157.148 236.752 157.636C236.998 158.125 237.121 158.729 237.121 159.449V165H235.423V159.653C235.423 159.021 235.258 158.527 234.928 158.17C234.599 157.811 234.146 157.631 233.57 157.631C233.176 157.631 232.826 157.716 232.519 157.886C232.216 158.057 231.976 158.307 231.798 158.636C231.623 158.962 231.536 159.356 231.536 159.818ZM241.94 165.193C241.387 165.193 240.887 165.091 240.44 164.886C239.993 164.678 239.638 164.377 239.377 163.983C239.12 163.589 238.991 163.106 238.991 162.534C238.991 162.042 239.085 161.636 239.275 161.318C239.464 161 239.72 160.748 240.042 160.562C240.364 160.377 240.724 160.237 241.121 160.142C241.519 160.047 241.924 159.975 242.337 159.926C242.86 159.866 243.284 159.816 243.61 159.778C243.936 159.737 244.173 159.67 244.32 159.58C244.468 159.489 244.542 159.341 244.542 159.136V159.097C244.542 158.6 244.402 158.216 244.121 157.943C243.845 157.67 243.432 157.534 242.883 157.534C242.311 157.534 241.86 157.661 241.531 157.915C241.205 158.165 240.979 158.443 240.854 158.75L239.258 158.386C239.447 157.856 239.724 157.428 240.087 157.102C240.455 156.773 240.877 156.534 241.354 156.386C241.832 156.235 242.334 156.159 242.86 156.159C243.209 156.159 243.578 156.201 243.968 156.284C244.362 156.364 244.729 156.511 245.07 156.727C245.415 156.943 245.697 157.252 245.917 157.653C246.137 158.051 246.246 158.568 246.246 159.205V165H244.587V163.807H244.519C244.409 164.027 244.245 164.242 244.025 164.455C243.805 164.667 243.523 164.843 243.178 164.983C242.834 165.123 242.421 165.193 241.94 165.193ZM242.309 163.83C242.779 163.83 243.18 163.737 243.513 163.551C243.851 163.366 244.106 163.123 244.281 162.824C244.459 162.521 244.548 162.197 244.548 161.852V160.727C244.487 160.788 244.37 160.845 244.195 160.898C244.025 160.947 243.83 160.991 243.61 161.028C243.39 161.062 243.176 161.095 242.968 161.125C242.76 161.152 242.585 161.174 242.445 161.193C242.116 161.235 241.815 161.305 241.542 161.403C241.273 161.502 241.057 161.644 240.894 161.83C240.735 162.011 240.656 162.254 240.656 162.557C240.656 162.977 240.811 163.295 241.121 163.511C241.432 163.723 241.828 163.83 242.309 163.83ZM252.583 156.273V157.636H247.816V156.273H252.583ZM249.094 154.182H250.793V162.438C250.793 162.767 250.843 163.015 250.941 163.182C251.04 163.345 251.166 163.456 251.322 163.517C251.481 163.574 251.653 163.602 251.839 163.602C251.975 163.602 252.094 163.593 252.197 163.574C252.299 163.555 252.379 163.54 252.435 163.528L252.742 164.932C252.644 164.97 252.504 165.008 252.322 165.045C252.14 165.087 251.913 165.11 251.64 165.114C251.193 165.121 250.776 165.042 250.39 164.875C250.004 164.708 249.691 164.451 249.452 164.102C249.214 163.754 249.094 163.316 249.094 162.79V154.182ZM254.462 165V156.273H256.161V165H254.462ZM255.32 154.926C255.025 154.926 254.771 154.828 254.559 154.631C254.351 154.43 254.246 154.191 254.246 153.915C254.246 153.634 254.351 153.396 254.559 153.199C254.771 152.998 255.025 152.898 255.32 152.898C255.616 152.898 255.868 152.998 256.076 153.199C256.288 153.396 256.394 153.634 256.394 153.915C256.394 154.191 256.288 154.43 256.076 154.631C255.868 154.828 255.616 154.926 255.32 154.926ZM262.123 165.176C261.305 165.176 260.591 164.989 259.981 164.614C259.371 164.239 258.897 163.714 258.56 163.04C258.223 162.366 258.055 161.578 258.055 160.676C258.055 159.771 258.223 158.979 258.56 158.301C258.897 157.623 259.371 157.097 259.981 156.722C260.591 156.347 261.305 156.159 262.123 156.159C262.941 156.159 263.655 156.347 264.265 156.722C264.875 157.097 265.348 157.623 265.685 158.301C266.022 158.979 266.191 159.771 266.191 160.676C266.191 161.578 266.022 162.366 265.685 163.04C265.348 163.714 264.875 164.239 264.265 164.614C263.655 164.989 262.941 165.176 262.123 165.176ZM262.129 163.75C262.659 163.75 263.098 163.61 263.447 163.33C263.795 163.049 264.053 162.676 264.219 162.21C264.39 161.744 264.475 161.231 264.475 160.67C264.475 160.114 264.39 159.602 264.219 159.136C264.053 158.667 263.795 158.29 263.447 158.006C263.098 157.722 262.659 157.58 262.129 157.58C261.594 157.58 261.151 157.722 260.799 158.006C260.451 158.29 260.191 158.667 260.021 159.136C259.854 159.602 259.771 160.114 259.771 160.67C259.771 161.231 259.854 161.744 260.021 162.21C260.191 162.676 260.451 163.049 260.799 163.33C261.151 163.61 261.594 163.75 262.129 163.75ZM269.786 159.818V165H268.087V156.273H269.718V157.693H269.826C270.027 157.231 270.341 156.86 270.769 156.58C271.201 156.299 271.745 156.159 272.4 156.159C272.995 156.159 273.515 156.284 273.962 156.534C274.409 156.78 274.756 157.148 275.002 157.636C275.248 158.125 275.371 158.729 275.371 159.449V165H273.673V159.653C273.673 159.021 273.508 158.527 273.178 158.17C272.849 157.811 272.396 157.631 271.82 157.631C271.426 157.631 271.076 157.716 270.769 157.886C270.466 158.057 270.226 158.307 270.048 158.636C269.873 158.962 269.786 159.356 269.786 159.818Z" fill="black"/>
<path d="M72 0H76.6207V4.62069H72V0ZM76.6207 0H81.2414V4.62069H76.6207V0ZM81.2414 0H85.8621V4.62069H81.2414V0ZM85.8621 0H90.4828V4.62069H85.8621V0ZM90.4828 0H95.1034V4.62069H90.4828V0ZM95.1034 0H99.7241V4.62069H95.1034V0ZM99.7241 0H104.345V4.62069H99.7241V0ZM127.448 0H132.069V4.62069H127.448V0ZM132.069 0H136.69V4.62069H132.069V0ZM155.172 0H159.793V4.62069H155.172V0ZM159.793 0H164.414V4.62069H159.793V0ZM164.414 0H169.034V4.62069H164.414V0ZM173.655 0H178.276V4.62069H173.655V0ZM178.276 0H182.897V4.62069H178.276V0ZM182.897 0H187.517V4.62069H182.897V0ZM187.517 0H192.138V4.62069H187.517V0ZM192.138 0H196.759V4.62069H192.138V0ZM196.759 0H201.379V4.62069H196.759V0ZM201.379 0H206V4.62069H201.379V0ZM72 4.62069H76.6207V9.24138H72V4.62069ZM99.7241 4.62069H104.345V9.24138H99.7241V4.62069ZM108.966 4.62069H113.586V9.24138H108.966V4.62069ZM118.207 4.62069H122.828V9.24138H118.207V4.62069ZM132.069 4.62069H136.69V9.24138H132.069V4.62069ZM136.69 4.62069H141.31V9.24138H136.69V4.62069ZM141.31 4.62069H145.931V9.24138H141.31V4.62069ZM155.172 4.62069H159.793V9.24138H155.172V4.62069ZM173.655 4.62069H178.276V9.24138H173.655V4.62069ZM201.379 4.62069H206V9.24138H201.379V4.62069ZM72 9.24138H76.6207V13.8621H72V9.24138ZM81.2414 9.24138H85.8621V13.8621H81.2414V9.24138ZM85.8621 9.24138H90.4828V13.8621H85.8621V9.24138ZM90.4828 9.24138H95.1034V13.8621H90.4828V9.24138ZM99.7241 9.24138H104.345V13.8621H99.7241V9.24138ZM122.828 9.24138H127.448V13.8621H122.828V9.24138ZM145.931 9.24138H150.552V13.8621H145.931V9.24138ZM164.414 9.24138H169.034V13.8621H164.414V9.24138ZM173.655 9.24138H178.276V13.8621H173.655V9.24138ZM182.897 9.24138H187.517V13.8621H182.897V9.24138ZM187.517 9.24138H192.138V13.8621H187.517V9.24138ZM192.138 9.24138H196.759V13.8621H192.138V9.24138ZM201.379 9.24138H206V13.8621H201.379V9.24138ZM72 13.8621H76.6207V18.4828H72V13.8621ZM81.2414 13.8621H85.8621V18.4828H81.2414V13.8621ZM85.8621 13.8621H90.4828V18.4828H85.8621V13.8621ZM90.4828 13.8621H95.1034V18.4828H90.4828V13.8621ZM99.7241 13.8621H104.345V18.4828H99.7241V13.8621ZM108.966 13.8621H113.586V18.4828H108.966V13.8621ZM113.586 13.8621H118.207V18.4828H113.586V13.8621ZM118.207 13.8621H122.828V18.4828H118.207V13.8621ZM132.069 13.8621H136.69V18.4828H132.069V13.8621ZM136.69 13.8621H141.31V18.4828H136.69V13.8621ZM150.552 13.8621H155.172V18.4828H150.552V13.8621ZM164.414 13.8621H169.034V18.4828H164.414V13.8621ZM173.655 13.8621H178.276V18.4828H173.655V13.8621ZM182.897 13.8621H187.517V18.4828H182.897V13.8621ZM187.517 13.8621H192.138V18.4828H187.517V13.8621ZM192.138 13.8621H196.759V18.4828H192.138V13.8621ZM201.379 13.8621H206V18.4828H201.379V13.8621ZM72 18.4828H76.6207V23.1034H72V18.4828ZM81.2414 18.4828H85.8621V23.1034H81.2414V18.4828ZM85.8621 18.4828H90.4828V23.1034H85.8621V18.4828ZM90.4828 18.4828H95.1034V23.1034H90.4828V18.4828ZM99.7241 18.4828H104.345V23.1034H99.7241V18.4828ZM113.586 18.4828H118.207V23.1034H113.586V18.4828ZM122.828 18.4828H127.448V23.1034H122.828V18.4828ZM136.69 18.4828H141.31V23.1034H136.69V18.4828ZM145.931 18.4828H150.552V23.1034H145.931V18.4828ZM155.172 18.4828H159.793V23.1034H155.172V18.4828ZM159.793 18.4828H164.414V23.1034H159.793V18.4828ZM164.414 18.4828H169.034V23.1034H164.414V18.4828ZM173.655 18.4828H178.276V23.1034H173.655V18.4828ZM182.897 18.4828H187.517V23.1034H182.897V18.4828ZM187.517 18.4828H192.138V23.1034H187.517V18.4828ZM192.138 18.4828H196.759V23.1034H192.138V18.4828ZM201.379 18.4828H206V23.1034H201.379V18.4828ZM72 23.1034H76.6207V27.7241H72V23.1034ZM99.7241 23.1034H104.345V27.7241H99.7241V23.1034ZM108.966 23.1034H113.586V27.7241H108.966V23.1034ZM113.586 23.1034H118.207V27.7241H113.586V23.1034ZM141.31 23.1034H145.931V27.7241H141.31V23.1034ZM145.931 23.1034H150.552V27.7241H145.931V23.1034ZM150.552 23.1034H155.172V27.7241H150.552V23.1034ZM155.172 23.1034H159.793V27.7241H155.172V23.1034ZM164.414 23.1034H169.034V27.7241H164.414V23.1034ZM173.655 23.1034H178.276V27.7241H173.655V23.1034ZM201.379 23.1034H206V27.7241H201.379V23.1034ZM72 27.7241H76.6207V32.3448H72V27.7241ZM76.6207 27.7241H81.2414V32.3448H76.6207V27.7241ZM81.2414 27.7241H85.8621V32.3448H81.2414V27.7241ZM85.8621 27.7241H90.4828V32.3448H85.8621V27.7241ZM90.4828 27.7241H95.1034V32.3448H90.4828V27.7241ZM95.1034 27.7241H99.7241V32.3448H95.1034V27.7241ZM99.7241 27.7241H104.345V32.3448H99.7241V27.7241ZM108.966 27.7241H113.586V32.3448H108.966V27.7241ZM118.207 27.7241H122.828V32.3448H118.207V27.7241ZM127.448 27.7241H132.069V32.3448H127.448V27.7241ZM136.69 27.7241H141.31V32.3448H136.69V27.7241ZM145.931 27.7241H150.552V32.3448H145.931V27.7241ZM155.172 27.7241H159.793V32.3448H155.172V27.7241ZM164.414 27.7241H169.034V32.3448H164.414V27.7241ZM173.655 27.7241H178.276V32.3448H173.655V27.7241ZM178.276 27.7241H182.897V32.3448H178.276V27.7241ZM182.897 27.7241H187.517V32.3448H182.897V27.7241ZM187.517 27.7241H192.138V32.3448H187.517V27.7241ZM192.138 27.7241H196.759V32.3448H192.138V27.7241ZM196.759 27.7241H201.379V32.3448H196.759V27.7241ZM201.379 27.7241H206V32.3448H201.379V27.7241ZM113.586 32.3448H118.207V36.9655H113.586V32.3448ZM118.207 32.3448H122.828V36.9655H118.207V32.3448ZM145.931 32.3448H150.552V36.9655H145.931V32.3448ZM155.172 32.3448H159.793V36.9655H155.172V32.3448ZM159.793 32.3448H164.414V36.9655H159.793V32.3448ZM72 36.9655H76.6207V41.5862H72V36.9655ZM76.6207 36.9655H81.2414V41.5862H76.6207V36.9655ZM81.2414 36.9655H85.8621V41.5862H81.2414V36.9655ZM85.8621 36.9655H90.4828V41.5862H85.8621V36.9655ZM90.4828 36.9655H95.1034V41.5862H90.4828V36.9655ZM99.7241 36.9655H104.345V41.5862H99.7241V36.9655ZM104.345 36.9655H108.966V41.5862H104.345V36.9655ZM108.966 36.9655H113.586V41.5862H108.966V36.9655ZM113.586 36.9655H118.207V41.5862H113.586V36.9655ZM127.448 36.9655H132.069V41.5862H127.448V36.9655ZM132.069 36.9655H136.69V41.5862H132.069V36.9655ZM136.69 36.9655H141.31V41.5862H136.69V36.9655ZM150.552 36.9655H155.172V41.5862H150.552V36.9655ZM164.414 36.9655H169.034V41.5862H164.414V36.9655ZM169.034 36.9655H173.655V41.5862H169.034V36.9655ZM178.276 36.9655H182.897V41.5862H178.276V36.9655ZM187.517 36.9655H192.138V41.5862H187.517V36.9655ZM196.759 36.9655H201.379V41.5862H196.759V36.9655ZM72 41.5862H76.6207V46.2069H72V41.5862ZM85.8621 41.5862H90.4828V46.2069H85.8621V41.5862ZM95.1034 41.5862H99.7241V46.2069H95.1034V41.5862ZM104.345 41.5862H108.966V46.2069H104.345V41.5862ZM118.207 41.5862H122.828V46.2069H118.207V41.5862ZM122.828 41.5862H127.448V46.2069H122.828V41.5862ZM145.931 41.5862H150.552V46.2069H145.931V41.5862ZM150.552 41.5862H155.172V46.2069H150.552V41.5862ZM155.172 41.5862H159.793V46.2069H155.172V41.5862ZM159.793 41.5862H164.414V46.2069H159.793V41.5862ZM164.414 41.5862H169.034V46.2069H164.414V41.5862ZM169.034 41.5862H173.655V46.2069H169.034V41.5862ZM173.655 41.5862H178.276V46.2069H173.655V41.5862ZM178.276 41.5862H182.897V46.2069H178.276V41.5862ZM182.897 41.5862H187.517V46.2069H182.897V41.5862ZM201.379 41.5862H206V46.2069H201.379V41.5862ZM81.2414 46.2069H85.8621V50.8276H81.2414V46.2069ZM90.4828 46.2069H95.1034V50.8276H90.4828V46.2069ZM99.7241 46.2069H104.345V50.8276H99.7241V46.2069ZM104.345 46.2069H108.966V50.8276H104.345V46.2069ZM118.207 46.2069H122.828V50.8276H118.207V46.2069ZM127.448 46.2069H132.069V50.8276H127.448V46.2069ZM141.31 46.2069H145.931V50.8276H141.31V46.2069ZM145.931 46.2069H150.552V50.8276H145.931V46.2069ZM164.414 46.2069H169.034V50.8276H164.414V46.2069ZM178.276 46.2069H182.897V50.8276H178.276V46.2069ZM90.4828 50.8276H95.1034V55.4483H90.4828V50.8276ZM122.828 50.8276H127.448V55.4483H122.828V50.8276ZM136.69 50.8276H141.31V55.4483H136.69V50.8276ZM141.31 50.8276H145.931V55.4483H141.31V50.8276ZM155.172 50.8276H159.793V55.4483H155.172V50.8276ZM164.414 50.8276H169.034V55.4483H164.414V50.8276ZM187.517 50.8276H192.138V55.4483H187.517V50.8276ZM196.759 50.8276H201.379V55.4483H196.759V50.8276ZM76.6207 55.4483H81.2414V60.069H76.6207V55.4483ZM81.2414 55.4483H85.8621V60.069H81.2414V55.4483ZM85.8621 55.4483H90.4828V60.069H85.8621V55.4483ZM90.4828 55.4483H95.1034V60.069H90.4828V55.4483ZM95.1034 55.4483H99.7241V60.069H95.1034V55.4483ZM99.7241 55.4483H104.345V60.069H99.7241V55.4483ZM104.345 55.4483H108.966V60.069H104.345V55.4483ZM108.966 55.4483H113.586V60.069H108.966V55.4483ZM113.586 55.4483H118.207V60.069H113.586V55.4483ZM118.207 55.4483H122.828V60.069H118.207V55.4483ZM122.828 55.4483H127.448V60.069H122.828V55.4483ZM127.448 55.4483H132.069V60.069H127.448V55.4483ZM132.069 55.4483H136.69V60.069H132.069V55.4483ZM136.69 55.4483H141.31V60.069H136.69V55.4483ZM150.552 55.4483H155.172V60.069H150.552V55.4483ZM159.793 55.4483H164.414V60.069H159.793V55.4483ZM187.517 55.4483H192.138V60.069H187.517V55.4483ZM192.138 55.4483H196.759V60.069H192.138V55.4483ZM76.6207 60.069H81.2414V64.6897H76.6207V60.069ZM81.2414 60.069H85.8621V64.6897H81.2414V60.069ZM85.8621 60.069H90.4828V64.6897H85.8621V60.069ZM90.4828 60.069H95.1034V64.6897H90.4828V60.069ZM95.1034 60.069H99.7241V64.6897H95.1034V60.069ZM104.345 60.069H108.966V64.6897H104.345V60.069ZM108.966 60.069H113.586V64.6897H108.966V60.069ZM122.828 60.069H127.448V64.6897H122.828V60.069ZM145.931 60.069H150.552V64.6897H145.931V60.069ZM155.172 60.069H159.793V64.6897H155.172V60.069ZM159.793 60.069H164.414V64.6897H159.793V60.069ZM173.655 60.069H178.276V64.6897H173.655V60.069ZM178.276 60.069H182.897V64.6897H178.276V60.069ZM182.897 60.069H187.517V64.6897H182.897V60.069ZM201.379 60.069H206V64.6897H201.379V60.069ZM72 64.6897H76.6207V69.3103H72V64.6897ZM76.6207 64.6897H81.2414V69.3103H76.6207V64.6897ZM81.2414 64.6897H85.8621V69.3103H81.2414V64.6897ZM90.4828 64.6897H95.1034V69.3103H90.4828V64.6897ZM95.1034 64.6897H99.7241V69.3103H95.1034V64.6897ZM99.7241 64.6897H104.345V69.3103H99.7241V64.6897ZM104.345 64.6897H108.966V69.3103H104.345V64.6897ZM113.586 64.6897H118.207V69.3103H113.586V64.6897ZM118.207 64.6897H122.828V69.3103H118.207V64.6897ZM132.069 64.6897H136.69V69.3103H132.069V64.6897ZM136.69 64.6897H141.31V69.3103H136.69V64.6897ZM141.31 64.6897H145.931V69.3103H141.31V64.6897ZM145.931 64.6897H150.552V69.3103H145.931V64.6897ZM164.414 64.6897H169.034V69.3103H164.414V64.6897ZM169.034 64.6897H173.655V69.3103H169.034V64.6897ZM187.517 64.6897H192.138V69.3103H187.517V64.6897ZM192.138 64.6897H196.759V69.3103H192.138V64.6897ZM72 69.3103H76.6207V73.931H72V69.3103ZM95.1034 69.3103H99.7241V73.931H95.1034V69.3103ZM108.966 69.3103H113.586V73.931H108.966V69.3103ZM113.586 69.3103H118.207V73.931H113.586V69.3103ZM122.828 69.3103H127.448V73.931H122.828V69.3103ZM136.69 69.3103H141.31V73.931H136.69V69.3103ZM164.414 69.3103H169.034V73.931H164.414V69.3103ZM169.034 69.3103H173.655V73.931H169.034V69.3103ZM173.655 69.3103H178.276V73.931H173.655V69.3103ZM178.276 69.3103H182.897V73.931H178.276V69.3103ZM196.759 69.3103H201.379V73.931H196.759V69.3103ZM76.6207 73.931H81.2414V78.5517H76.6207V73.931ZM81.2414 73.931H85.8621V78.5517H81.2414V73.931ZM95.1034 73.931H99.7241V78.5517H95.1034V73.931ZM99.7241 73.931H104.345V78.5517H99.7241V73.931ZM113.586 73.931H118.207V78.5517H113.586V73.931ZM118.207 73.931H122.828V78.5517H118.207V73.931ZM122.828 73.931H127.448V78.5517H122.828V73.931ZM127.448 73.931H132.069V78.5517H127.448V73.931ZM132.069 73.931H136.69V78.5517H132.069V73.931ZM136.69 73.931H141.31V78.5517H136.69V73.931ZM141.31 73.931H145.931V78.5517H141.31V73.931ZM145.931 73.931H150.552V78.5517H145.931V73.931ZM150.552 73.931H155.172V78.5517H150.552V73.931ZM155.172 73.931H159.793V78.5517H155.172V73.931ZM187.517 73.931H192.138V78.5517H187.517V73.931ZM192.138 73.931H196.759V78.5517H192.138V73.931ZM72 78.5517H76.6207V83.1724H72V78.5517ZM81.2414 78.5517H85.8621V83.1724H81.2414V78.5517ZM95.1034 78.5517H99.7241V83.1724H95.1034V78.5517ZM108.966 78.5517H113.586V83.1724H108.966V78.5517ZM118.207 78.5517H122.828V83.1724H118.207V78.5517ZM122.828 78.5517H127.448V83.1724H122.828V78.5517ZM127.448 78.5517H132.069V83.1724H127.448V78.5517ZM145.931 78.5517H150.552V83.1724H145.931V78.5517ZM150.552 78.5517H155.172V83.1724H150.552V78.5517ZM155.172 78.5517H159.793V83.1724H155.172V78.5517ZM159.793 78.5517H164.414V83.1724H159.793V78.5517ZM164.414 78.5517H169.034V83.1724H164.414V78.5517ZM173.655 78.5517H178.276V83.1724H173.655V78.5517ZM178.276 78.5517H182.897V83.1724H178.276V78.5517ZM182.897 78.5517H187.517V83.1724H182.897V78.5517ZM192.138 78.5517H196.759V83.1724H192.138V78.5517ZM201.379 78.5517H206V83.1724H201.379V78.5517ZM72 83.1724H76.6207V87.7931H72V83.1724ZM85.8621 83.1724H90.4828V87.7931H85.8621V83.1724ZM90.4828 83.1724H95.1034V87.7931H90.4828V83.1724ZM99.7241 83.1724H104.345V87.7931H99.7241V83.1724ZM104.345 83.1724H108.966V87.7931H104.345V83.1724ZM118.207 83.1724H122.828V87.7931H118.207V83.1724ZM127.448 83.1724H132.069V87.7931H127.448V83.1724ZM136.69 83.1724H141.31V87.7931H136.69V83.1724ZM141.31 83.1724H145.931V87.7931H141.31V83.1724ZM145.931 83.1724H150.552V87.7931H145.931V83.1724ZM164.414 83.1724H169.034V87.7931H164.414V83.1724ZM169.034 83.1724H173.655V87.7931H169.034V83.1724ZM178.276 83.1724H182.897V87.7931H178.276V83.1724ZM182.897 83.1724H187.517V87.7931H182.897V83.1724ZM192.138 83.1724H196.759V87.7931H192.138V83.1724ZM72 87.7931H76.6207V92.4138H72V87.7931ZM81.2414 87.7931H85.8621V92.4138H81.2414V87.7931ZM90.4828 87.7931H95.1034V92.4138H90.4828V87.7931ZM104.345 87.7931H108.966V92.4138H104.345V87.7931ZM118.207 87.7931H122.828V92.4138H118.207V87.7931ZM122.828 87.7931H127.448V92.4138H122.828V87.7931ZM136.69 87.7931H141.31V92.4138H136.69V87.7931ZM141.31 87.7931H145.931V92.4138H141.31V87.7931ZM145.931 87.7931H150.552V92.4138H145.931V87.7931ZM159.793 87.7931H164.414V92.4138H159.793V87.7931ZM173.655 87.7931H178.276V92.4138H173.655V87.7931ZM196.759 87.7931H201.379V92.4138H196.759V87.7931ZM72 92.4138H76.6207V97.0345H72V92.4138ZM81.2414 92.4138H85.8621V97.0345H81.2414V92.4138ZM90.4828 92.4138H95.1034V97.0345H90.4828V92.4138ZM99.7241 92.4138H104.345V97.0345H99.7241V92.4138ZM104.345 92.4138H108.966V97.0345H104.345V92.4138ZM113.586 92.4138H118.207V97.0345H113.586V92.4138ZM132.069 92.4138H136.69V97.0345H132.069V92.4138ZM136.69 92.4138H141.31V97.0345H136.69V92.4138ZM141.31 92.4138H145.931V97.0345H141.31V92.4138ZM145.931 92.4138H150.552V97.0345H145.931V92.4138ZM150.552 92.4138H155.172V97.0345H150.552V92.4138ZM164.414 92.4138H169.034V97.0345H164.414V92.4138ZM169.034 92.4138H173.655V97.0345H169.034V92.4138ZM173.655 92.4138H178.276V97.0345H173.655V92.4138ZM178.276 92.4138H182.897V97.0345H178.276V92.4138ZM182.897 92.4138H187.517V97.0345H182.897V92.4138ZM192.138 92.4138H196.759V97.0345H192.138V92.4138ZM196.759 92.4138H201.379V97.0345H196.759V92.4138ZM201.379 92.4138H206V97.0345H201.379V92.4138ZM108.966 97.0345H113.586V101.655H108.966V97.0345ZM118.207 97.0345H122.828V101.655H118.207V97.0345ZM122.828 97.0345H127.448V101.655H122.828V97.0345ZM136.69 97.0345H141.31V101.655H136.69V97.0345ZM145.931 97.0345H150.552V101.655H145.931V97.0345ZM155.172 97.0345H159.793V101.655H155.172V97.0345ZM164.414 97.0345H169.034V101.655H164.414V97.0345ZM182.897 97.0345H187.517V101.655H182.897V97.0345ZM187.517 97.0345H192.138V101.655H187.517V97.0345ZM192.138 97.0345H196.759V101.655H192.138V97.0345ZM196.759 97.0345H201.379V101.655H196.759V97.0345ZM201.379 97.0345H206V101.655H201.379V97.0345ZM72 101.655H76.6207V106.276H72V101.655ZM76.6207 101.655H81.2414V106.276H76.6207V101.655ZM81.2414 101.655H85.8621V106.276H81.2414V101.655ZM85.8621 101.655H90.4828V106.276H85.8621V101.655ZM90.4828 101.655H95.1034V106.276H90.4828V101.655ZM95.1034 101.655H99.7241V106.276H95.1034V101.655ZM99.7241 101.655H104.345V106.276H99.7241V101.655ZM108.966 101.655H113.586V106.276H108.966V101.655ZM118.207 101.655H122.828V106.276H118.207V101.655ZM132.069 101.655H136.69V106.276H132.069V101.655ZM141.31 101.655H145.931V106.276H141.31V101.655ZM159.793 101.655H164.414V106.276H159.793V101.655ZM164.414 101.655H169.034V106.276H164.414V101.655ZM173.655 101.655H178.276V106.276H173.655V101.655ZM182.897 101.655H187.517V106.276H182.897V101.655ZM187.517 101.655H192.138V106.276H187.517V101.655ZM192.138 101.655H196.759V106.276H192.138V101.655ZM72 106.276H76.6207V110.897H72V106.276ZM99.7241 106.276H104.345V110.897H99.7241V106.276ZM136.69 106.276H141.31V110.897H136.69V106.276ZM145.931 106.276H150.552V110.897H145.931V106.276ZM155.172 106.276H159.793V110.897H155.172V106.276ZM159.793 106.276H164.414V110.897H159.793V106.276ZM164.414 106.276H169.034V110.897H164.414V106.276ZM182.897 106.276H187.517V110.897H182.897V106.276ZM196.759 106.276H201.379V110.897H196.759V106.276ZM201.379 106.276H206V110.897H201.379V106.276ZM72 110.897H76.6207V115.517H72V110.897ZM81.2414 110.897H85.8621V115.517H81.2414V110.897ZM85.8621 110.897H90.4828V115.517H85.8621V110.897ZM90.4828 110.897H95.1034V115.517H90.4828V110.897ZM99.7241 110.897H104.345V115.517H99.7241V110.897ZM108.966 110.897H113.586V115.517H108.966V110.897ZM118.207 110.897H122.828V115.517H118.207V110.897ZM127.448 110.897H132.069V115.517H127.448V110.897ZM132.069 110.897H136.69V115.517H132.069V110.897ZM141.31 110.897H145.931V115.517H141.31V110.897ZM150.552 110.897H155.172V115.517H150.552V110.897ZM164.414 110.897H169.034V115.517H164.414V110.897ZM169.034 110.897H173.655V115.517H169.034V110.897ZM173.655 110.897H178.276V115.517H173.655V110.897ZM178.276 110.897H182.897V115.517H178.276V110.897ZM182.897 110.897H187.517V115.517H182.897V110.897ZM192.138 110.897H196.759V115.517H192.138V110.897ZM196.759 110.897H201.379V115.517H196.759V110.897ZM72 115.517H76.6207V120.138H72V115.517ZM81.2414 115.517H85.8621V120.138H81.2414V115.517ZM85.8621 115.517H90.4828V120.138H85.8621V115.517ZM90.4828 115.517H95.1034V120.138H90.4828V115.517ZM99.7241 115.517H104.345V120.138H99.7241V115.517ZM108.966 115.517H113.586V120.138H108.966V115.517ZM113.586 115.517H118.207V120.138H113.586V115.517ZM122.828 115.517H127.448V120.138H122.828V115.517ZM132.069 115.517H136.69V120.138H132.069V115.517ZM145.931 115.517H150.552V120.138H145.931V115.517ZM150.552 115.517H155.172V120.138H150.552V115.517ZM155.172 115.517H159.793V120.138H155.172V115.517ZM159.793 115.517H164.414V120.138H159.793V115.517ZM187.517 115.517H192.138V120.138H187.517V115.517ZM192.138 115.517H196.759V120.138H192.138V115.517ZM201.379 115.517H206V120.138H201.379V115.517ZM72 120.138H76.6207V124.759H72V120.138ZM81.2414 120.138H85.8621V124.759H81.2414V120.138ZM85.8621 120.138H90.4828V124.759H85.8621V120.138ZM90.4828 120.138H95.1034V124.759H90.4828V120.138ZM99.7241 120.138H104.345V124.759H99.7241V120.138ZM108.966 120.138H113.586V124.759H108.966V120.138ZM127.448 120.138H132.069V124.759H127.448V120.138ZM132.069 120.138H136.69V124.759H132.069V120.138ZM136.69 120.138H141.31V124.759H136.69V120.138ZM141.31 120.138H145.931V124.759H141.31V120.138ZM155.172 120.138H159.793V124.759H155.172V120.138ZM173.655 120.138H178.276V124.759H173.655V120.138ZM178.276 120.138H182.897V124.759H178.276V120.138ZM182.897 120.138H187.517V124.759H182.897V120.138ZM187.517 120.138H192.138V124.759H187.517V120.138ZM192.138 120.138H196.759V124.759H192.138V120.138ZM196.759 120.138H201.379V124.759H196.759V120.138ZM72 124.759H76.6207V129.379H72V124.759ZM99.7241 124.759H104.345V129.379H99.7241V124.759ZM108.966 124.759H113.586V129.379H108.966V124.759ZM113.586 124.759H118.207V129.379H113.586V124.759ZM118.207 124.759H122.828V129.379H118.207V124.759ZM145.931 124.759H150.552V129.379H145.931V124.759ZM164.414 124.759H169.034V129.379H164.414V124.759ZM169.034 124.759H173.655V129.379H169.034V124.759ZM182.897 124.759H187.517V129.379H182.897V124.759ZM187.517 124.759H192.138V129.379H187.517V124.759ZM196.759 124.759H201.379V129.379H196.759V124.759ZM72 129.379H76.6207V134H72V129.379ZM76.6207 129.379H81.2414V134H76.6207V129.379ZM81.2414 129.379H85.8621V134H81.2414V129.379ZM85.8621 129.379H90.4828V134H85.8621V129.379ZM90.4828 129.379H95.1034V134H90.4828V129.379ZM95.1034 129.379H99.7241V134H95.1034V129.379ZM99.7241 129.379H104.345V134H99.7241V129.379ZM108.966 129.379H113.586V134H108.966V129.379ZM113.586 129.379H118.207V134H113.586V129.379ZM118.207 129.379H122.828V134H118.207V129.379ZM127.448 129.379H132.069V134H127.448V129.379ZM132.069 129.379H136.69V134H132.069V129.379ZM136.69 129.379H141.31V134H136.69V129.379ZM141.31 129.379H145.931V134H141.31V129.379ZM150.552 129.379H155.172V134H150.552V129.379ZM159.793 129.379H164.414V134H159.793V129.379ZM169.034 129.379H173.655V134H169.034V129.379ZM178.276 129.379H182.897V134H178.276V129.379ZM182.897 129.379H187.517V134H182.897V129.379ZM187.517 129.379H192.138V134H187.517V129.379ZM192.138 129.379H196.759V134H192.138V129.379Z" fill="black"/>
</svg>
